<?xml version="1.0" encoding="utf-8"?>
<!-- Generator: Adobe Illustrator 17.0.0, SVG Export Plug-In . SVG Version: 6.00 Build 0)  -->
<!DOCTYPE svg PUBLIC "-//W3C//DTD SVG 1.1//EN" "http://www.w3.org/Graphics/SVG/1.1/DTD/svg11.dtd">
<svg version="1.1" id="Layer_1" xmlns="http://www.w3.org/2000/svg" xmlns:xlink="http://www.w3.org/1999/xlink" x="0px" y="0px"
	 width="1000px" height="1000px" viewBox="0 0 1000 1000" enable-background="new 0 0 1000 1000" xml:space="preserve">
<g>
	<g>
		<path fill="#FFFFFF" d="M501.667,43.083c13.417,5.134,18.483,15.4,18.483,28.783c0,16.8,0,33.6,0,50.25
			c0,5.134-0.483,5.45-5.216,3.416c-12.633-5.283-25.433-10.567-38.083-16.033c-3-1.25-5.533-1.4-8.367,0
			c-82.167,35-164.333,70.016-246.5,105.017c-21.167,9.016-42.35,18.033-63.516,27.067c-1.1,0.467-2.684,0.616-2.684,1.867
			c-0.167,1.55,1.583,1.867,2.533,2.483c16.6,9.5,34.767,14.617,53.566,17.733c24.8,4.2,49.617,4.2,73.95-2.8
			c13.116-3.733,25.433-9.95,37.917-15.4c42.033-17.733,83.9-35.617,125.783-53.517c62.583-26.766,125.3-53.367,187.884-80.134
			c5.7-2.483,11.216-4.984,17.85-3.583c10.267,2.334,18.483,11.5,19.116,21.933c0.167,2.8-1.583,3.416-3.467,4.2
			c-21,9.016-42.033,18.033-62.884,26.917c-64,27.383-127.984,54.75-191.983,82.133c-23.851,10.117-47.716,19.9-71.267,30.65
			c-21.8,9.8-39.35,24.733-50.233,46.217c-6.634,12.917-9.483,26.766-9.483,41.233c0,154.783,0,309.433,0,464.233c0,1.4,0,2.8,0,4.2
			c0,6.216,0,6.216-6,7.317c-46.15,7.467-90.383,0.933-132.884-18.2c-11.05-4.984-21.167-11.667-29.85-20.233
			c-10.75-10.433-16.116-22.867-16.116-37.967c0-120.417,0-240.834,0-361.234c0-52.117,0.167-104.233-0.167-156.2
			c-0.167-17.583,7.75-30.65,21.483-40.916c10.267-7.633,22.267-11.667,33.817-16.65c84.367-36.1,168.6-71.883,252.666-107.8
			c26.217-11.2,52.634-22.417,78.85-33.6c1.1-0.467,2.05-0.933,3.167-1.4C495.984,40.767,498.2,41.7,501.667,43.083z"/>
		<path fill="#FFFFFF" d="M899.867,512.917c0,89.15-0.167,178.433,0.167,267.583c0,9.333-4.266,14.167-11.85,17.583
			c-15.8,7-31.767,13.534-47.567,20.383c-63.683,27.217-127.367,54.45-191.05,81.517c-35.067,14.933-70,29.867-105.067,44.8
			c-28.449,12.133-58.15,15.233-88.633,12.75c-23.233-1.867-45.667-6.216-67.317-14.783c-15.484-6.067-29.867-13.85-42.2-25.05
			c-12.017-10.884-17.533-24.417-17.533-40.45c0-172.533,0-345.067,0-517.6c0-18.967,10.267-32.2,25.917-42
			c12.017-7.467,25.284-11.983,38.233-17.417c75.684-32.366,151.383-64.416,226.9-96.617c31.117-13.233,62.583-25.983,93.384-39.983
			c19.283-8.717,35.067,5.917,35.4,22.55c0.316,18.35,0.167,36.867,0,55.233c0,3.9-0.483,4.2-4.266,2.65
			c-13.116-5.45-26.383-11.05-39.5-16.65c-2.367-1.1-4.584-1.1-6.967,0c-55.45,23.65-110.767,47.283-166.233,70.783
			c-40.933,17.417-82,34.85-122.933,52.266c-7.266,3.117-14.683,6.216-21.967,9.5c-0.95,0.467-2.684,0.317-2.684,1.867
			c0,1.25,1.583,1.55,2.533,2.184c10.117,5.917,20.867,10.117,32.083,13.067c29.85,8.083,60.216,10.433,90.7,3.416
			c14.383-3.267,27.334-10.117,40.617-15.717c67.317-28.633,134.467-57.25,201.783-85.867c39.35-16.8,78.533-33.45,117.867-50.25
			c10.117-4.35,18.8-2.65,26.217,4.667c2.85,2.8,3.95,5.917,3.95,9.8C899.867,332.917,899.867,423,899.867,512.917z"/>
	</g>
</g>
</svg>
